# xmcd CD database file
#
# Track frame offsets:
#	150
#	19257
#	41067
#	57392
#	74760
#	93765
#	111597
#	130280
#	143125
#	162955
#	182602
#	199145
#	211682
#	227132
#
# Disc length: 3373 seconds
#
# Revision: 0
# Processed by: cddbd v1.4PL0 Copyright (c) Steve Scherf et al.
# Submitted via: CDex 1.50beta9
#
DISCID=cf0d2b0e
DTITLE=SHAUN MICHAEL - SHAUN MICHAEL-BACK HOME AGAIN
DYEAR=1900
DGENRE=Country
TTITLE0=Back Home Again
TTITLE1=Maggie
TTITLE2=Leaving Here A Better Man
TTITLE3=United We Can't Stand
TTITLE4=That's All That Matters To Me
TTITLE5=Rainbows And Roses
TTITLE6=Working Man
TTITLE7=Every Second
TTITLE8=Lucky Old Colorado
TTITLE9=Everything That Glitters
TTITLE10=Osle Of Inishfree
TTITLE11=Tipperary On My Mind
TTITLE12=The Chair
TTITLE13=Fields Of Athenry
EXTD=
EXTT0=
EXTT1=
EXTT2=
EXTT3=
EXTT4=
EXTT5=
EXTT6=
EXTT7=
EXTT8=
EXTT9=
EXTT10=
EXTT11=
EXTT12=
EXTT13=
PLAYORDER=
